<svg xmlns="http://www.w3.org/2000/svg" xmlns:xlink="http://www.w3.org/1999/xlink" id="Layer_1" x="0px" y="0px" viewBox="0 0 506.5 118" style="enable-background:new 0 0 506.5 118;" xml:space="preserve">
<style type="text/css">
	.st0{opacity:0.85;fill-rule:evenodd;clip-rule:evenodd;}
	.st1{fill:#FFFFFF;}
	.st2{fill-rule:evenodd;clip-rule:evenodd;fill:#32CD32;}
	.st3{fill-rule:evenodd;clip-rule:evenodd;fill:#1E90FF;}
	.st4{fill-rule:evenodd;clip-rule:evenodd;fill:#0087C2;}
	.st5{fill-rule:evenodd;clip-rule:evenodd;fill:#00B363;}
	.st6{fill:#1E90FF;}
	.st7{opacity:0.8;}
	.st8{opacity:0.65;fill-rule:evenodd;clip-rule:evenodd;}
	.st9{fill-rule:evenodd;clip-rule:evenodd;}
	.st10{opacity:0.7;fill-rule:evenodd;clip-rule:evenodd;fill:#FFFFFF;}
	.st11{opacity:0.8;fill-rule:evenodd;clip-rule:evenodd;fill:#FFFFFF;}
	.st12{opacity:0.6;fill-rule:evenodd;clip-rule:evenodd;fill:#FFFFFF;}
</style>
<g>
	<path class="st6" d="M105.2,51.9c1,0,1.6-0.5,1.8-1.5c0.1-0.2,0.1-0.4,0.1-0.5v-9.3c0-1-0.5-1.7-1.5-1.9c-0.2-0.1-0.3-0.1-0.5-0.1   H29.6v13.2H105.2L105.2,51.9z M80.5,64.7H29.4v24.7H16.5V26.1h92.8c4.5,0,7.7,1.8,9.5,5.4c0.8,1.5,1.2,3.3,1.2,5.2V54   c0,4.5-1.8,7.6-5.3,9.5c-1.6,0.8-3.4,1.3-5.3,1.3H96.9l24.6,24.7h-16.4L80.5,64.7L80.5,64.7z"></path>
	<path class="st6" d="M225.5,26.1c4.5,0,7.7,1.8,9.5,5.4c0.8,1.5,1.2,3.3,1.2,5.2v52.7h-13V64.7h-77.1v24.7h-13.2V36.8   c0-4.5,1.8-7.6,5.4-9.4c1.5-0.8,3.3-1.3,5.3-1.3H225.5L225.5,26.1z M221.2,38.8h-73.4c-1,0-1.6,0.5-1.8,1.5   c-0.1,0.2-0.1,0.3-0.1,0.5c0,0.6,0,4.4,0.1,11.3H223V40.8c0-1-0.5-1.7-1.4-1.9C221.5,38.8,221.3,38.8,221.2,38.8L221.2,38.8z"></path>
	<path class="st6" d="M329.2,89.4H249V26.1h80.3c6.8,0,12.5,2.5,17.1,7.5c4,4.5,6,9.6,6,15.6v17c0,6.9-2.5,12.6-7.6,17.2   C340.3,87.4,335.2,89.4,329.2,89.4L329.2,89.4z M329.3,76.7c3,0,5.6-1.4,7.8-4.2c1.4-1.8,2.1-3.7,2.1-5.7V48.7   c0-3.1-1.5-5.7-4.3-7.9c-1.8-1.4-3.7-2-5.6-2h-67.4v38H329.3L329.3,76.7z"></path>
	<polygon class="st6" points="368.2,26.1 381,26.1 381,89.4 368.2,89.4 368.2,26.1  "></polygon>
</g>
<polygon class="st2" points="464.3,12.5 392.4,105.5 424.2,105.5 496,12.5 464.3,12.5 "></polygon>
<polygon class="st3" points="464.3,105.5 428.4,59 460.1,59 444.2,38.5 428.4,59 392.4,12.5 424.2,12.5 496,105.5 464.3,105.5 "></polygon>
<polygon class="st4" points="428.4,59 444.2,79.5 460.1,59 428.4,59 "></polygon>
<polygon class="st5" points="444.2,38.5 428.4,59 460.1,59 444.2,38.5 "></polygon>
</svg>